<mxfile host="65bd71144e" scale="1" border="20">
    <diagram id="CX3G9Xh7dB3GCvSDx5av" name="第 1 页">
        <mxGraphModel dx="2136" dy="571" grid="0" gridSize="10" guides="0" tooltips="1" connect="1" arrows="1" fold="1" page="1" pageScale="1" pageWidth="1169" pageHeight="827" background="#ffffff" math="0" shadow="0">
            <root>
                <mxCell id="0"/>
                <mxCell id="1" parent="0"/>
                <mxCell id="89" value="" style="whiteSpace=wrap;html=1;aspect=fixed;fontColor=#000000;" vertex="1" parent="1">
                    <mxGeometry x="292" y="7" width="170" height="170" as="geometry"/>
                </mxCell>
                <mxCell id="84" value="&lt;p class=&quot;MsoNormal&quot;&gt;&lt;b&gt;&lt;span style=&quot;font-family: 宋体; font-size: 12pt;&quot;&gt;表现层（&lt;/span&gt;&lt;/b&gt;&lt;span style=&quot;font-family: Calibri; font-size: 12pt; background-color: initial;&quot;&gt;controller&lt;/span&gt;&lt;b style=&quot;background-color: initial;&quot;&gt;&lt;span style=&quot;font-family: 宋体; font-size: 12pt;&quot;&gt;）&lt;/span&gt;&lt;/b&gt;&lt;/p&gt;" style="rounded=0;whiteSpace=wrap;html=1;" vertex="1" parent="1">
                    <mxGeometry x="327" y="79" width="104" height="52" as="geometry"/>
                </mxCell>
                <mxCell id="86" value="前端系统" style="whiteSpace=wrap;html=1;aspect=fixed;" vertex="1" parent="1">
                    <mxGeometry x="-43" y="37" width="108" height="108" as="geometry"/>
                </mxCell>
                <mxCell id="88" value="&lt;font color=&quot;#000000&quot;&gt;HTTP请求&lt;/font&gt;" style="text;html=1;align=center;verticalAlign=middle;resizable=0;points=[];autosize=1;strokeColor=none;fillColor=none;" vertex="1" parent="1">
                    <mxGeometry x="139" y="60" width="73" height="26" as="geometry"/>
                </mxCell>
                <mxCell id="90" value="&lt;font style=&quot;font-size: 16px;&quot;&gt;控制层（Interceptor）&lt;/font&gt;" style="text;html=1;align=center;verticalAlign=middle;resizable=0;points=[];autosize=1;strokeColor=none;fillColor=none;fontColor=#000000;" vertex="1" parent="1">
                    <mxGeometry x="298" y="28" width="174" height="31" as="geometry"/>
                </mxCell>
                <mxCell id="94" value="&lt;font style=&quot;font-size: 16px;&quot;&gt;业务逻辑层（service）&lt;/font&gt;" style="whiteSpace=wrap;html=1;fontColor=#000000;" vertex="1" parent="1">
                    <mxGeometry x="316" y="256" width="120" height="60" as="geometry"/>
                </mxCell>
                <mxCell id="97" value="&lt;font style=&quot;font-size: 16px;&quot;&gt;数据访问层（mapper）&lt;/font&gt;" style="whiteSpace=wrap;html=1;fontColor=#000000;" vertex="1" parent="1">
                    <mxGeometry x="316" y="406" width="120" height="60" as="geometry"/>
                </mxCell>
                <mxCell id="99" value="" style="shape=flexArrow;endArrow=classic;startArrow=classic;html=1;rounded=0;strokeColor=#000000;fontSize=16;fontColor=#000000;entryX=0.5;entryY=1;entryDx=0;entryDy=0;exitX=0.5;exitY=0;exitDx=0;exitDy=0;" edge="1" parent="1" source="97" target="94">
                    <mxGeometry width="100" height="100" relative="1" as="geometry">
                        <mxPoint x="339" y="404" as="sourcePoint"/>
                        <mxPoint x="439" y="304" as="targetPoint"/>
                    </mxGeometry>
                </mxCell>
                <mxCell id="LAEWNEZ6TCDx1piv8FlZ-120" style="edgeStyle=none;rounded=0;html=1;exitX=1;exitY=0.5;exitDx=0;exitDy=0;entryX=0;entryY=0;entryDx=0;entryDy=0;strokeColor=#000000;fontSize=16;fontColor=#000000;" edge="1" parent="1" source="103" target="94">
                    <mxGeometry relative="1" as="geometry"/>
                </mxCell>
                <mxCell id="LAEWNEZ6TCDx1piv8FlZ-121" style="edgeStyle=none;rounded=0;html=1;exitX=1;exitY=0.5;exitDx=0;exitDy=0;entryX=0;entryY=1;entryDx=0;entryDy=0;strokeColor=#000000;fontSize=16;fontColor=#000000;" edge="1" parent="1" source="103" target="89">
                    <mxGeometry relative="1" as="geometry"/>
                </mxCell>
                <mxCell id="103" value="&lt;font style=&quot;font-size: 16px;&quot;&gt;实体层（entity）&lt;/font&gt;" style="whiteSpace=wrap;html=1;fontColor=#000000;" vertex="1" parent="1">
                    <mxGeometry x="114" y="153" width="120" height="60" as="geometry"/>
                </mxCell>
                <mxCell id="LAEWNEZ6TCDx1piv8FlZ-119" style="edgeStyle=none;rounded=0;html=1;exitX=1;exitY=0.5;exitDx=0;exitDy=0;entryX=0;entryY=0.5;entryDx=0;entryDy=0;strokeColor=#000000;fontSize=16;fontColor=#000000;" edge="1" parent="1" source="112" target="94">
                    <mxGeometry relative="1" as="geometry"/>
                </mxCell>
                <mxCell id="112" value="&lt;span style=&quot;font-size: 16px;&quot;&gt;配置工具层（util）&lt;/span&gt;" style="whiteSpace=wrap;html=1;fontColor=#000000;" vertex="1" parent="1">
                    <mxGeometry x="114" y="256" width="120" height="60" as="geometry"/>
                </mxCell>
                <mxCell id="96" value="数据库" style="shape=cylinder3;whiteSpace=wrap;html=1;boundedLbl=1;backgroundOutline=1;size=15;strokeColor=#000000;fontSize=16;fontColor=#000000;" vertex="1" parent="1">
                    <mxGeometry x="331" y="554" width="91" height="94" as="geometry"/>
                </mxCell>
                <mxCell id="LAEWNEZ6TCDx1piv8FlZ-116" value="" style="group" vertex="1" connectable="0" parent="1">
                    <mxGeometry x="577" y="170" width="102" height="234" as="geometry"/>
                </mxCell>
                <mxCell id="108" value="" style="rounded=0;whiteSpace=wrap;html=1;strokeColor=#000000;fontSize=16;fontColor=#000000;" vertex="1" parent="LAEWNEZ6TCDx1piv8FlZ-116">
                    <mxGeometry width="102" height="234" as="geometry"/>
                </mxCell>
                <mxCell id="104" value="Redis" style="shape=cylinder3;whiteSpace=wrap;html=1;boundedLbl=1;backgroundOutline=1;size=15;strokeColor=#000000;fontSize=16;fontColor=#000000;" vertex="1" parent="LAEWNEZ6TCDx1piv8FlZ-116">
                    <mxGeometry x="22" y="17" width="60" height="80" as="geometry"/>
                </mxCell>
                <mxCell id="106" value="百度云服务器" style="rounded=0;whiteSpace=wrap;html=1;strokeColor=#000000;fontSize=16;fontColor=#000000;" vertex="1" parent="LAEWNEZ6TCDx1piv8FlZ-116">
                    <mxGeometry x="23" y="123" width="62" height="91" as="geometry"/>
                </mxCell>
                <mxCell id="LAEWNEZ6TCDx1piv8FlZ-117" value="" style="shape=flexArrow;endArrow=classic;startArrow=classic;html=1;rounded=0;strokeColor=#000000;fontSize=16;fontColor=#000000;entryX=0;entryY=0.5;entryDx=0;entryDy=0;exitX=1;exitY=0.5;exitDx=0;exitDy=0;" edge="1" parent="1" source="94" target="108">
                    <mxGeometry width="100" height="100" relative="1" as="geometry">
                        <mxPoint x="430" y="342" as="sourcePoint"/>
                        <mxPoint x="530" y="242" as="targetPoint"/>
                    </mxGeometry>
                </mxCell>
                <mxCell id="LAEWNEZ6TCDx1piv8FlZ-118" value="" style="shape=flexArrow;endArrow=classic;startArrow=classic;html=1;rounded=0;strokeColor=#000000;fontSize=16;fontColor=#000000;entryX=0.5;entryY=1;entryDx=0;entryDy=0;exitX=0.5;exitY=0;exitDx=0;exitDy=0;exitPerimeter=0;" edge="1" parent="1" source="96" target="97">
                    <mxGeometry width="100" height="100" relative="1" as="geometry">
                        <mxPoint x="351" y="655" as="sourcePoint"/>
                        <mxPoint x="451" y="555" as="targetPoint"/>
                    </mxGeometry>
                </mxCell>
                <mxCell id="LAEWNEZ6TCDx1piv8FlZ-122" value="" style="shape=flexArrow;endArrow=classic;startArrow=classic;html=1;rounded=0;strokeColor=#000000;fontSize=16;fontColor=#000000;entryX=0.5;entryY=1;entryDx=0;entryDy=0;exitX=0.5;exitY=0;exitDx=0;exitDy=0;" edge="1" parent="1" source="94" target="89">
                    <mxGeometry width="100" height="100" relative="1" as="geometry">
                        <mxPoint x="324" y="312" as="sourcePoint"/>
                        <mxPoint x="424" y="212" as="targetPoint"/>
                    </mxGeometry>
                </mxCell>
                <mxCell id="LAEWNEZ6TCDx1piv8FlZ-123" value="" style="shape=flexArrow;endArrow=classic;startArrow=classic;html=1;rounded=0;strokeColor=#000000;fontSize=16;fontColor=#000000;entryX=0;entryY=0.5;entryDx=0;entryDy=0;exitX=1;exitY=0.5;exitDx=0;exitDy=0;" edge="1" parent="1" source="86" target="89">
                    <mxGeometry width="100" height="100" relative="1" as="geometry">
                        <mxPoint x="89" y="184" as="sourcePoint"/>
                        <mxPoint x="189" y="84" as="targetPoint"/>
                    </mxGeometry>
                </mxCell>
                <mxCell id="LAEWNEZ6TCDx1piv8FlZ-124" value="JSON" style="text;html=1;align=center;verticalAlign=middle;resizable=0;points=[];autosize=1;strokeColor=none;fillColor=none;fontSize=16;fontColor=#000000;" vertex="1" parent="1">
                    <mxGeometry x="141" y="97" width="61" height="31" as="geometry"/>
                </mxCell>
            </root>
        </mxGraphModel>
    </diagram>
    <diagram id="anC4GNeqcOEbdoiPuJC1" name="第 2 页">
        <mxGraphModel dx="532" dy="314" grid="1" gridSize="10" guides="1" tooltips="1" connect="1" arrows="1" fold="1" page="1" pageScale="1" pageWidth="1169" pageHeight="827" math="0" shadow="0">
            <root>
                <mxCell id="0"/>
                <mxCell id="1" parent="0"/>
            </root>
        </mxGraphModel>
    </diagram>
</mxfile>